<svg width="93" height="93" viewBox="0 0 93 93" fill="none" xmlns="http://www.w3.org/2000/svg">
<g id="icon / ionicons / logos /  logo-chrome">
<path id="Vector" d="M34.2937 46.4873C34.293 48.9016 35.0083 51.2619 36.3491 53.2697C37.6899 55.2775 39.596 56.8426 41.8263 57.767C44.0567 58.6914 46.5111 58.9336 48.8791 58.4631C51.2471 57.9925 53.4224 56.8303 55.1298 55.1233C56.8373 53.4164 58.0002 51.2415 58.4714 48.8736C58.9427 46.5057 58.7012 44.0512 57.7774 41.8206C56.8537 39.59 55.2892 37.6834 53.2818 36.342C51.2744 35.0006 48.9143 34.2847 46.5 34.2847C43.266 34.2933 40.1668 35.5816 37.8797 37.868C35.5925 40.1545 34.3033 43.2533 34.2937 46.4873V46.4873Z" fill="white"/>
<path id="Vector_2" d="M86.5972 39.5595C86.5972 39.5595 86.5972 39.5595 86.5972 39.5686C86.2994 37.7942 85.8745 36.0435 85.3257 34.3301H85.3057C85.863 36.0519 86.2922 37.8126 86.5899 39.5977V39.5977C86.2914 37.8127 85.8621 36.0521 85.3057 34.3301H57.0787C60.539 37.418 62.775 41.6266 62.775 46.5091C62.7829 49.3704 62.0098 52.1796 60.539 54.6339L41.959 86.906C41.9599 86.9223 41.9599 86.9387 41.959 86.955V87.0059V86.9586C43.4672 87.1195 44.9832 87.1959 46.5 87.1875C47.7424 87.1875 48.9721 87.1167 50.1873 87.0059C52.0078 86.8413 53.815 86.5537 55.5966 86.1449C73.688 82.0144 87.1875 65.8266 87.1875 46.4891C87.1878 44.1667 86.9903 41.8484 86.5972 39.5595V39.5595Z" fill="white"/>
<path id="Vector_3" d="M46.5 62.7569C40.3969 62.7569 35.3109 59.5037 32.461 54.6212L13.8047 22.351L13.7793 22.3074C9.75357 27.7576 7.15277 34.127 6.21292 40.8372C5.27306 47.5475 6.02391 54.3863 8.39731 60.7328C10.7707 67.0793 14.6915 72.7326 19.8038 77.1796C24.9162 81.6266 31.0581 84.7264 37.6723 86.1976V86.1886L51.7839 61.7397C50.0966 62.3887 48.3076 62.7331 46.5 62.7569V62.7569Z" fill="white"/>
<path id="Vector_4" d="M16.582 18.9943L30.6319 43.1979C31.3613 39.5244 33.3409 36.217 36.234 33.8386C39.127 31.4602 42.7548 30.1576 46.5 30.1524H83.7672C82.4861 27.3374 80.9169 24.6627 79.0845 22.1711L79.1063 22.1857C80.9316 24.6727 82.4936 27.3426 83.7672 30.1524H83.7981C82.5253 27.3342 80.9633 24.6558 79.1372 22.1603C79.1147 22.1463 79.0935 22.1305 79.0736 22.113C75.4938 17.3272 70.9034 13.3891 65.6288 10.5788C60.3542 7.76855 54.5251 6.15514 48.5563 5.85339C42.5874 5.55164 36.6253 6.56897 31.0942 8.83299C25.5631 11.097 20.5989 14.5521 16.5547 18.9525L16.5801 18.9961L16.582 18.9943Z" fill="white"/>
</g>
</svg>
