<svg width="93" height="93" viewBox="0 0 93 93" fill="none" xmlns="http://www.w3.org/2000/svg">
<g id="icon / ionicons / logos /  logo-google">
<path id="Vector" d="M85.9451 40.2298L85.5346 38.4878H47.6734V54.5122H70.2949C67.9463 65.6649 57.0479 71.5355 48.1457 71.5355C41.6684 71.5355 34.8405 68.8109 30.3213 64.4316C27.9369 62.0841 26.039 59.2894 24.7362 56.2074C23.4333 53.1255 22.7511 49.8169 22.7287 46.4709C22.7287 39.7212 25.7621 32.9696 30.176 28.5285C34.5898 24.0874 41.256 21.6025 47.8841 21.6025C55.4749 21.6025 60.915 25.6331 62.9494 27.4713L74.3364 16.1442C70.9961 13.2089 61.8196 5.8125 47.5172 5.8125C36.4825 5.8125 25.902 10.0393 18.1677 17.7481C10.5352 25.3389 6.58447 36.3154 6.58447 46.5C6.58447 56.6846 10.3226 67.1126 17.719 74.7633C25.6222 82.9226 36.8149 87.1875 48.34 87.1875C58.8261 87.1875 68.7655 83.0788 75.8495 75.6243C82.8136 68.286 86.4155 58.1323 86.4155 47.4881C86.4155 43.0071 85.9651 40.346 85.9451 40.2298Z" fill="white"/>
</g>
</svg>
