<svg width="68" height="66" viewBox="0 0 68 66" fill="none" xmlns="http://www.w3.org/2000/svg">
<g id="Group">
<g id="Group_2">
<path id="Vector" fill-rule="evenodd" clip-rule="evenodd" d="M34.0383 0C15.7177 0 0.861572 15.0901 0.861572 33.7053C0.861572 48.5974 10.3677 61.2316 23.5499 65.6884C25.2079 66.0003 25.8168 64.9572 25.8168 64.0669C25.8168 63.2633 25.7858 60.608 25.7718 57.7916C16.5417 59.8305 14.5941 53.8148 14.5941 53.8148C13.085 49.9189 10.9105 48.8832 10.9105 48.8832C7.90049 46.7912 11.1374 46.834 11.1374 46.834C14.469 47.0719 16.2232 50.3075 16.2232 50.3075C19.1822 55.4604 23.9845 53.9705 25.8777 53.1096C26.1753 50.9308 27.0353 49.4441 27.984 48.6025C20.6151 47.75 12.8685 44.8599 12.8685 31.945C12.8685 28.2654 14.1645 25.2584 16.287 22.8981C15.9425 22.049 14.807 18.621 16.6083 13.9783C16.6083 13.9783 19.3943 13.0724 25.7343 17.4333C28.3805 16.6862 31.2188 16.3119 34.0383 16.2992C36.8578 16.3119 39.6982 16.6862 42.3496 17.4333C48.6821 13.0724 51.4641 13.9783 51.4641 13.9783C53.2699 18.621 52.1339 22.049 51.7894 22.8981C53.9165 25.2584 55.2037 28.2651 55.2037 31.945C55.2037 44.8905 47.4425 47.7412 40.0549 48.5755C41.2448 49.6215 42.3051 51.6728 42.3051 54.8172C42.3051 59.3269 42.2666 62.9567 42.2666 64.0669C42.2666 64.9638 42.8637 66.0149 44.5457 65.6839C57.7206 61.222 67.2148 48.5924 67.2148 33.7053C67.2148 15.0901 52.3608 0 34.0383 0Z" fill="white"/>
<path id="Vector_2" d="M13.3034 48.0053C13.2311 48.1732 12.9733 48.2236 12.739 48.1085C12.5 47.9981 12.3657 47.769 12.4432 47.6003C12.5142 47.4274 12.772 47.3791 13.0105 47.4953C13.2499 47.6054 13.3863 47.8366 13.3034 48.0053ZM14.9236 49.4894C14.7666 49.639 14.4594 49.5695 14.251 49.3332C14.0355 49.0974 13.9952 48.7824 14.1546 48.6304C14.3166 48.4811 14.6144 48.5508 14.8304 48.7869C15.0458 49.0253 15.0879 49.3382 14.9236 49.4894ZM16.0352 51.3883C15.8332 51.5323 15.5031 51.3973 15.2993 51.0965C15.0975 50.7961 15.0975 50.4354 15.3036 50.2908C15.5082 50.1463 15.8332 50.2763 16.0399 50.5746C16.2414 50.8804 16.2416 51.2408 16.0352 51.3883ZM17.9148 53.5876C17.7342 53.7918 17.3498 53.7372 17.0683 53.4582C16.7805 53.1856 16.7002 52.7986 16.8812 52.5942C17.0639 52.3894 17.4506 52.447 17.7342 52.7236C18.0202 52.9957 18.1073 53.3855 17.9148 53.5876ZM20.3441 54.3302C20.2648 54.5949 19.8944 54.7153 19.5213 54.6028C19.1488 54.4869 18.905 54.1766 18.9802 53.9091C19.0577 53.6425 19.4296 53.5171 19.8055 53.6375C20.1775 53.7528 20.4216 54.0607 20.3441 54.3302ZM23.1092 54.645C23.1185 54.924 22.8021 55.1553 22.4105 55.1603C22.0165 55.169 21.698 54.9434 21.6939 54.6691C21.6939 54.3875 22.0031 54.1583 22.3968 54.1517C22.7884 54.1438 23.1092 54.3679 23.1092 54.645ZM25.8253 54.5381C25.8723 54.8102 25.6 55.0897 25.2113 55.164C24.8289 55.2356 24.475 55.0677 24.4262 54.798C24.3787 54.519 24.6561 54.2398 25.0377 54.1674C25.4272 54.0979 25.7757 54.2615 25.8253 54.5381Z" fill="white"/>
</g>
</g>
</svg>
