<svg width="85" height="60" viewBox="0 0 85 60" fill="none" xmlns="http://www.w3.org/2000/svg">
<path d="M35.0923 59.9256C19.1535 59.6261 13.7096 59.3566 10.3635 58.6529C8.09958 58.1853 6.13226 57.1471 4.68977 55.6414C3.57491 54.5018 2.68829 52.763 2.00043 50.3507C1.41039 48.3409 1.18059 46.6687 0.852959 42.5842C0.351425 33.3658 0.231864 25.8291 0.852959 17.408C1.36536 12.7577 1.6138 7.23711 5.0174 4.01639C6.62448 2.50905 8.49397 1.53903 10.5933 1.13803C13.8727 0.502445 27.8442 0 42.3079 0C56.739 0 70.7416 0.502445 74.0241 1.13803C76.6467 1.64047 79.1062 3.14622 80.5502 5.08785C83.6557 10.0743 83.7101 16.2748 84.0253 21.1249C84.1557 23.4358 84.1557 36.558 84.0253 38.8689C83.5346 46.534 83.1402 49.2459 82.0253 52.0577C81.3359 53.8329 80.7474 54.7696 79.7289 55.8078C78.1313 57.4054 76.0948 58.4681 73.8906 58.8542C60.0976 59.913 48.3853 60.1428 35.0923 59.9256ZM56.2142 29.1259C48.5406 24.94 41.193 21.0583 33.6825 17.0403V41.0784C41.5859 36.6927 49.9179 32.6748 56.2468 29.0927L56.2142 29.1259Z" fill="white"/>
</svg>
