<svg width="98" height="93" viewBox="0 0 98 93" fill="none" xmlns="http://www.w3.org/2000/svg">
<g id="icon / ionicons / logos /  logo-github">
<path id="Vector" d="M48.5899 5.8125C25.1111 5.8125 6.07374 24.5033 6.07374 47.5354C6.07374 65.9719 18.2592 81.593 35.1517 87.1148C35.3887 87.1641 35.6305 87.1885 35.873 87.1875C37.4484 87.1875 38.0558 86.0795 38.0558 85.1168C38.0558 84.1178 38.0178 81.5021 37.9988 78.0146C36.5924 78.3302 35.1537 78.4947 33.7092 78.5051C25.5287 78.5051 23.6686 72.4201 23.6686 72.4201C21.7326 67.6066 18.9425 66.317 18.9425 66.317C15.2413 63.8285 18.9235 63.7559 19.2082 63.7559H19.2272C23.4978 64.1191 25.7375 68.0789 25.7375 68.0789C27.8633 71.6391 30.7103 72.6381 33.2537 72.6381C34.9354 72.6059 36.5912 72.2345 38.1127 71.5482C38.4923 68.86 39.5932 67.0254 40.8079 65.9719C31.3746 64.9184 21.4479 61.34 21.4479 45.3557C21.4479 40.7965 23.0992 37.0729 25.8134 34.1666C25.3768 33.1131 23.9153 28.8627 26.2309 23.1229C26.5416 23.0517 26.8608 23.0212 27.18 23.032C28.7174 23.032 32.1908 23.5951 37.9229 27.4096C44.8878 25.5447 52.254 25.5447 59.2189 27.4096C64.951 23.5951 68.4244 23.032 69.9618 23.032C70.281 23.0212 70.6003 23.0517 70.9109 23.1229C73.2265 28.8627 71.765 33.1131 71.3284 34.1666C74.0426 37.091 75.6939 40.8146 75.6939 45.3557C75.6939 61.3764 65.7482 64.9002 56.277 65.9355C57.7954 67.2252 59.162 69.7682 59.162 73.6553C59.162 79.2316 59.105 83.7363 59.105 85.0986C59.105 86.0795 59.6934 87.1875 61.2688 87.1875C61.5238 87.1886 61.7783 87.1642 62.028 87.1148C78.9396 81.593 91.106 65.9537 91.106 47.5354C91.106 24.5033 72.0687 5.8125 48.5899 5.8125Z" fill="white"/>
</g>
</svg>
